<svg xmlns="http://www.w3.org/2000/svg" width="200" height="35" fill="none" viewBox="0 0 200 35"><g clip-path="url(#a)"><path fill="#120735" d="M25.893 28.424h2.697c.15 1.282.583 2.198 1.283 2.747.699.55 1.798.816 3.313.816 2.748 0 4.13-.882 4.13-2.664 0-.782-.283-1.365-.85-1.765-.566-.4-1.598-.75-3.08-1.032l-1.599-.3c-3.58-.666-5.361-2.348-5.361-5.062 0-1.482.566-2.664 1.682-3.547 1.115-.882 2.647-1.315 4.579-1.315q6.819 0 6.993 5.695h-2.664c-.066-1.25-.45-2.115-1.132-2.631-.683-.517-1.749-.766-3.197-.766-1.15 0-2.048.216-2.664.666s-.933 1.065-.933 1.865q0 1.124.8 1.698c.532.383 1.415.7 2.663.966l1.532.3q3.172.624 4.546 1.798c.916.783 1.382 1.865 1.382 3.264 0 1.615-.6 2.88-1.815 3.78s-2.88 1.348-5.012 1.348c-4.596 0-7.027-1.948-7.293-5.861M49.87 19.033h-3.53v11.156c0 .982.65 1.465 1.966 1.465h1.565v2.232q-1.1.1-1.898.1c-2.864 0-4.296-1.183-4.296-3.564v-11.39h-2.831v-2.33h2.83v-4.863h2.665v4.862h3.53zM67.555 31.72v2.166c-.45.066-.933.1-1.466.1-1.798 0-2.764-.816-2.897-2.465-1.199 1.848-3.064 2.764-5.595 2.764-1.881 0-3.363-.433-4.446-1.315-1.082-.883-1.615-2.115-1.615-3.713 0-3.114 2.115-4.88 6.361-5.329l2.464-.266c1.799-.2 2.698-.983 2.698-2.365 0-.949-.3-1.648-.883-2.065-.582-.416-1.582-.632-2.98-.632-1.482 0-2.564.25-3.214.749-.65.5-1.032 1.382-1.116 2.648h-2.664q.325-5.695 6.994-5.695c4.313 0 6.46 1.665 6.46 4.995v9.591c0 .55.317.833.933.833zm-6.095-.998c1.066-.85 1.599-2.048 1.599-3.63V25.06c-.483.383-1.249.617-2.265.733l-2.497.3c-1.45.183-2.465.516-3.08.999-.617.483-.917 1.182-.917 2.098 0 .882.283 1.582.866 2.081.583.5 1.432.75 2.565.75 1.431 0 2.664-.433 3.73-1.3M71.085 31.82c-1.465-1.648-2.198-3.812-2.198-6.526 0-2.748.733-4.946 2.198-6.561 1.415-1.615 3.347-2.431 5.761-2.431 2.048 0 3.713.55 5.029 1.665 1.315 1.116 2.098 2.63 2.364 4.562h-2.764c-.2-1.215-.732-2.164-1.582-2.83q-1.274-1-3.047-1c-1.582 0-2.83.567-3.763 1.716s-1.399 2.764-1.399 4.879c0 2.08.466 3.713 1.416 4.862.949 1.149 2.198 1.731 3.746 1.731 1.182 0 2.198-.35 3.064-1.032.866-.683 1.399-1.648 1.599-2.864h2.73q-.425 2.898-2.447 4.596-2.025 1.698-4.946 1.698c-2.364 0-4.296-.816-5.761-2.464M98.593 33.886l-5.795-9.225-3.064 2.864v6.36H87.07V10.175h2.664v14.22l7.96-7.693h3.53l-6.528 6.195 6.994 10.99zM102.456 28.424h4.096c.117 1.066.467 1.815 1.049 2.265.583.45 1.516.666 2.781.666 2.265 0 3.397-.683 3.397-2.065 0-.616-.25-1.1-.733-1.432-.482-.333-1.365-.616-2.631-.833l-1.964-.333c-3.747-.616-5.629-2.348-5.629-5.195 0-1.615.617-2.897 1.865-3.813 1.249-.916 2.998-1.382 5.262-1.382 4.912 0 7.443 1.948 7.593 5.828h-3.963c-.05-1.016-.366-1.749-.966-2.182-.599-.433-1.482-.649-2.664-.649q-2.997 0-2.997 1.998c0 .583.216 1.032.666 1.349q.675.474 2.198.75l2.165.332q3.121.575 4.546 1.799c.949.816 1.415 1.964 1.415 3.43q0 2.598-1.998 3.996c-1.332.933-3.214 1.399-5.628 1.399-5.012 0-7.627-1.965-7.86-5.928M121.738 31.82c-1.548-1.614-2.331-3.796-2.331-6.526 0-2.748.783-4.946 2.331-6.561 1.532-1.615 3.58-2.431 6.161-2.431 2.248 0 4.08.6 5.495 1.781 1.416 1.183 2.248 2.798 2.498 4.813h-4.196q-.3-1.5-1.299-2.298-.998-.8-2.498-.8c-1.315 0-2.331.467-3.08 1.416s-1.116 2.298-1.116 4.08c0 1.781.383 3.13 1.133 4.08.749.948 1.781 1.414 3.063 1.414 1.016 0 1.882-.283 2.581-.849s1.133-1.382 1.283-2.448h4.196c-.217 2.065-1.066 3.714-2.531 4.946s-3.314 1.848-5.529 1.848c-2.531 0-4.579-.816-6.161-2.464M152.094 17.917c1.082 1.082 1.615 2.598 1.615 4.58v11.389h-4.196v-10.69c0-2.182-1.082-3.264-3.23-3.264-1.066 0-1.965.383-2.715 1.149s-1.115 1.831-1.115 3.18v9.625h-4.196V10.174h4.196v8.825c1.315-1.798 3.047-2.697 5.228-2.697 1.865 0 3.347.55 4.413 1.615M165.099 34.285c-2.615 0-4.729-.816-6.328-2.464-1.615-1.615-2.431-3.797-2.431-6.527s.816-4.913 2.431-6.528c1.599-1.648 3.713-2.464 6.328-2.464 2.614 0 4.729.816 6.327 2.43 1.599 1.616 2.398 3.814 2.398 6.562 0 2.714-.799 4.878-2.398 6.527-1.598 1.648-3.696 2.464-6.327 2.464m3.28-4.912c.783-.966 1.182-2.331 1.182-4.08 0-1.748-.399-3.113-1.182-4.08-.783-.965-1.882-1.448-3.28-1.448-1.399 0-2.498.483-3.281 1.432-.782.95-1.182 2.315-1.182 4.097 0 1.781.4 3.147 1.182 4.096.783.949 1.882 1.432 3.281 1.432 1.398 0 2.497-.483 3.28-1.449M184.448 34.285c-2.615 0-4.729-.816-6.328-2.464-1.615-1.615-2.431-3.797-2.431-6.527s.816-4.913 2.431-6.528c1.599-1.648 3.713-2.464 6.328-2.464 2.614 0 4.729.816 6.327 2.43 1.599 1.616 2.398 3.814 2.398 6.562 0 2.714-.799 4.878-2.398 6.527-1.598 1.648-3.696 2.464-6.327 2.464m3.28-4.912c.783-.966 1.182-2.331 1.182-4.08 0-1.748-.399-3.113-1.182-4.08-.783-.965-1.882-1.448-3.28-1.448-1.399 0-2.498.483-3.281 1.432-.782.95-1.182 2.315-1.182 4.097 0 1.781.4 3.147 1.182 4.096.783.949 1.882 1.432 3.281 1.432 1.398 0 2.497-.483 3.28-1.449M195.804 33.886V10.174H200v23.712z"></path><path fill="#6420FF" d="M14.47 0 0 7.893l14.47 7.893 14.454-7.893z"></path><path fill="#120735" d="M19.499 18.183v7.294q0 2.497-1.299 3.796c-.866.866-2.115 1.299-3.73 1.299-1.632 0-2.864-.433-3.747-1.299q-1.298-1.299-1.298-3.796v-7.31l-4.163-2.282v9.542c0 2.764.816 4.912 2.464 6.444q2.448 2.298 6.744 2.298c2.88 0 5.145-.75 6.76-2.265 1.632-1.515 2.432-3.663 2.432-6.477v-9.525z"></path></g><defs><clipPath id="a"><path fill="#fff" d="M0 0h200v34.352H0z"></path></clipPath></defs></svg>